<svg xmlns="http://www.w3.org/2000/svg" width="128" height="128" viewBox="0 0 600 600">
    <rect x="0" y="0" width="600" height="600" fill="black" />
    <path fill="dimgrey" stroke="cornsilk" d="M207.52939061190116,558.7016328377648 C188.8624179506931,550.2391739409082 213.22138474463958,533.319841302626 222.44352010131473,525.8355222678 C228.65541417635671,520.0716243021743 186.8427085303718,526.6440701146853 204.49566840001683,506.6352683553266 C223.86353984089163,490.2891693738982 216.5473781486322,462.6351855653455 197.18789275427628,449.7805815155476 C170.54519584210877,431.69591849147173 136.3609098246951,416.2179774749116 126.51811967098934,382.44898613415836 C116.56559460439365,361.41578256497905 140.16817494420985,339.26352812117256 124.98712458248005,320.2699952130827 C112.76774631628422,295.6088994888131 127.04345307259479,269.8925430928065 135.91683371967025,247.04786988292256 C139.99748395569594,215.44690239781622 115.0001643123667,190.45654595398534 101.25318031813298,164.49460078956247 C84.23128791994705,139.68477834777826 74.41908936510421,110.7756274552583 73.00909793948506,80.64885998918714 C69.3072873549458,67.78947869952017 73.4039584340089,47.81921099995206 88.18599021982376,65.15625354878276 C119.1417706240255,90.07456500025924 153.12601449010623,113.71903949286087 174.7914180840877,147.82619618778054 C178.89245689571203,160.14597769683684 195.31378606663841,195.85222761911876 196.23076531160464,163.5181821389498 C196.66023571894794,119.07729359127279 210.16206761994871,70.60785702173341 244.75945378305886,40.82682472738347 C268.29199316351486,19.270583646690795 280.98299919173826,57.01469520172705 282.08101221592517,76.19482147859661 C288.20609323857104,113.93326006129814 278.05303683459573,151.35706822152355 266.73898470289015,187.00614933588116 C262.58548068773433,203.57342398495828 251.7687036436629,248.9738000831403 282.61829573382374,232.23391251723456 C353.6846764046572,204.65148192634064 439.7868715940806,233.6204536974419 486.07645070316727,292.87335007541594 C507.35536237822373,321.5628708778856 516.674164391954,358.42222707218735 516.463779449911,393.8134250508296 C505.5067981906045,414.60558876749303 546.2178393879792,393.4239219315276 531.4661371370772,417.41181322945175 C522.781966664581,443.9846830681784 498.24577475420404,458.40342921546113 481.05888689076903,478.46047758476027 C463.56982181777386,494.5324648656533 476.5461805497259,528.8950633862016 447.6243309030638,533.9583580498127 C405.4238404893059,547.036561513949 361.1098567016627,552.7652975891132 317.17766515271643,556.0998110137725 C292.5933408295059,561.1631056773754 280.6624425635596,532.9028339273439 304.225643426599,521.1543189763564 C315.52248669200736,503.64715751091535 347.8424322717895,502.42028503511517 357.44532908227296,499.6468338436837 C334.4975417371993,501.90400942561405 306.1972029631578,492.4881750351374 286.8603074816141,506.7753187622095 C275.1496477623635,525.8867019625148 265.77043127183924,551.0414340970856 241.21304712307278,556.4963921759614 C230.17700990439593,559.5776943244737 218.82999012731568,562.0486865170562 207.52940808282906,558.7016152743729 L207.52939061190116,558.7016328377648 z" stroke-width="30">
    </path>
</svg>
